<svg width="28" height="28" viewBox="0 0 28 28" fill="none" xmlns="http://www.w3.org/2000/svg">
<path d="M17.2477 18.11L18.9277 16.43C19.154 16.2066 19.4403 16.0536 19.7518 15.9897C20.0634 15.9258 20.3867 15.9537 20.6827 16.07L22.7302 16.8875C23.0293 17.0089 23.2858 17.2162 23.4673 17.4831C23.6488 17.75 23.7473 18.0647 23.7502 18.3875V22.1375C23.7485 22.3571 23.7023 22.5741 23.6145 22.7753C23.5267 22.9766 23.3991 23.158 23.2393 23.3087C23.0796 23.4594 22.891 23.5761 22.6849 23.652C22.4788 23.7278 22.2595 23.7612 22.0402 23.75C7.69272 22.8575 4.79772 10.7075 4.25022 6.05753C4.22481 5.82918 4.24803 5.59804 4.31836 5.37931C4.38869 5.16058 4.50453 4.95922 4.65827 4.78848C4.81201 4.61774 5.00016 4.48148 5.21034 4.38868C5.42052 4.29587 5.64797 4.24862 5.87772 4.25003H9.50022C9.82348 4.25099 10.1391 4.34863 10.4064 4.5304C10.6737 4.71217 10.8805 4.96976 11.0002 5.27003L11.8177 7.31753C11.9379 7.61233 11.9686 7.93601 11.9059 8.24814C11.8432 8.56027 11.6899 8.847 11.4652 9.07253L9.78522 10.7525C9.78522 10.7525 10.7527 17.3 17.2477 18.11Z" fill="black"/>
</svg>
