<svg width="28" height="28" viewBox="0 0 28 28" fill="none" xmlns="http://www.w3.org/2000/svg">
<g clip-path="url(#clip0_1451_1703)">
<path fill-rule="evenodd" clip-rule="evenodd" d="M26 14C26 20.6274 20.6274 26 14 26C7.37258 26 2 20.6274 2 14C2 7.37258 7.37258 2 14 2C20.6274 2 26 7.37258 26 14ZM10.1488 15.0179L7.22021 14.0637C7.22021 14.0637 6.87021 13.9217 6.98291 13.5997C7.00611 13.5333 7.05291 13.4768 7.19291 13.3797C7.84181 12.9274 19.2035 8.84369 19.2035 8.84369C19.2035 8.84369 19.5243 8.73559 19.7135 8.80749C19.7603 8.82198 19.8024 8.84864 19.8355 8.88475C19.8687 8.92085 19.8916 8.96511 19.902 9.01299C19.9224 9.09756 19.931 9.18456 19.9274 9.27149C19.9269 9.31756 19.9232 9.36157 19.9189 9.41388L19.9189 9.41393L19.9189 9.41403C19.9162 9.44707 19.9132 9.48342 19.9105 9.52569C19.8413 10.6422 17.7705 18.975 17.7705 18.975C17.7705 18.975 17.6466 19.4626 17.2027 19.4793C17.0936 19.4828 16.9849 19.4643 16.8831 19.425C16.7813 19.3856 16.6885 19.3261 16.6102 19.2501C16.1427 18.8479 15.0588 18.0787 14.0519 17.3836C13.7474 17.6396 13.1394 18.1655 12.5126 18.7925C11.6228 19.6825 11.7372 18.7925 11.7372 18.7925L12.0105 15.8879L12.0163 15.8913C12.0289 15.8616 12.0501 15.8374 12.0501 15.8374C12.0501 15.8374 17.2927 11.1774 17.4322 10.6882C17.443 10.6503 17.4022 10.6316 17.3474 10.6482C16.9995 10.7762 10.9741 14.5812 10.2987 15.0077L10.2968 15.0089C10.2489 15.0234 10.1982 15.0265 10.1488 15.0179Z" fill="black"/>
</g>
<defs>
<clipPath id="clip0_1451_1703">
<rect width="24" height="24" fill="white" transform="translate(2 2)"/>
</clipPath>
</defs>
</svg>
