<svg xmlns="http://www.w3.org/2000/svg" width="43" height="47" viewBox="0 0 43 47" fill="none">
    <path d="M2.6582 36.5078C1.77018 36.0208 1.11133 35.4551 0.681641 34.8105C0.251953 34.1517 0.0371094 33.1921 0.0371094 31.9316V14.1641C0.0371094 13.2904 0.216146 12.5599 0.574219 11.9727C0.932292 11.3854 1.47656 10.8841 2.20703 10.4688L18.2559 1.44531C19.3301 0.84375 20.4115 0.542969 21.5 0.542969C22.5885 0.542969 23.6628 0.84375 24.7227 1.44531L40.793 10.4688C41.5091 10.8841 42.0462 11.3854 42.4043 11.9727C42.7624 12.5599 42.9414 13.2904 42.9414 14.1641V31.9316C42.9414 33.1921 42.7266 34.1517 42.2969 34.8105C41.8672 35.4551 41.2083 36.0208 40.3203 36.5078L23.1328 46.1113C22.5742 46.4264 22.0228 46.584 21.4785 46.584C20.9486 46.584 20.4115 46.4264 19.8672 46.1113L2.6582 36.5078ZM4.29102 34.4238L20.1895 43.2969V24.6055L2.59375 14.7441V31.8027C2.59375 32.4043 2.70117 32.9056 2.91602 33.3066C3.14518 33.6934 3.60352 34.0658 4.29102 34.4238ZM38.709 34.4238C39.3822 34.0658 39.8262 33.6934 40.041 33.3066C40.2702 32.9056 40.3848 32.4043 40.3848 31.8027V14.7441L22.7891 24.6055V43.2969L38.709 34.4238ZM21.5 22.2852L29.1055 18.0527L11.4668 8.23438L3.9043 12.5098L21.5 22.2852ZM31.7695 16.5703L39.0957 12.5098L23.498 3.72266C22.1803 2.96354 20.8483 2.96354 19.502 3.72266L14.0879 6.75195L31.7695 16.5703Z" fill="#ffffff"/>
</svg>