<svg width="40" height="47" viewBox="0 0 40 47" fill="none" xmlns="http://www.w3.org/2000/svg">
    <path d="M0.0410156 7.22461C0.0410156 6.23633 0.341797 5.45573 0.943359 4.88281C1.54492 4.3099 2.36849 4.02344 3.41406 4.02344H7.17383C7.28841 2.96354 7.68945 2.13997 8.37695 1.55273C9.07878 0.951172 10.0026 0.650391 11.1484 0.650391H28.8516C30.026 0.650391 30.957 0.951172 31.6445 1.55273C32.332 2.1543 32.7259 2.97786 32.8262 4.02344H36.6074C37.6387 4.02344 38.4551 4.3099 39.0566 4.88281C39.6582 5.45573 39.959 6.23633 39.959 7.22461C39.959 10.0319 39.5365 12.474 38.6914 14.5508C37.8464 16.6276 36.5788 18.3965 34.8887 19.8574C33.2129 21.304 31.1074 22.5 28.5723 23.4453C27.8848 24.4049 27.14 25.25 26.3379 25.9805C25.5501 26.6966 24.7767 27.2767 24.0176 27.7207V36.873H27.2188C28.5365 36.873 29.5391 37.2311 30.2266 37.9473C30.9284 38.6634 31.2793 39.6517 31.2793 40.9121V45.0801C31.2793 45.4525 31.1504 45.7533 30.8926 45.9824C30.6491 46.2116 30.3483 46.3262 29.9902 46.3262H10.0098C9.65169 46.3262 9.34375 46.2116 9.08594 45.9824C8.84245 45.7533 8.7207 45.4525 8.7207 45.0801V40.9121C8.7207 39.6517 9.06445 38.6634 9.75195 37.9473C10.4538 37.2311 11.4635 36.873 12.7812 36.873H15.9824V27.7207C15.2233 27.2767 14.4427 26.6966 13.6406 25.9805C12.8529 25.25 12.1224 24.4049 11.4492 23.4453C8.89974 22.5 6.77995 21.304 5.08984 19.8574C3.41406 18.3965 2.15365 16.6276 1.30859 14.5508C0.463542 12.474 0.0410156 10.0319 0.0410156 7.22461ZM2.42578 7.43945C2.42578 10.5046 3.00586 13.0755 4.16602 15.1523C5.32617 17.2148 7.00911 18.8477 9.21484 20.0508C8.58464 18.7617 8.06901 17.3796 7.66797 15.9043C7.28125 14.429 7.08789 12.875 7.08789 11.2422V6.51562H3.34961C3.07747 6.51562 2.85547 6.60872 2.68359 6.79492C2.51172 6.9668 2.42578 7.18164 2.42578 7.43945ZM9.60156 11.8438C9.60156 13.319 9.83789 14.7728 10.3105 16.2051C10.7975 17.6374 11.4277 18.9837 12.2012 20.2441C12.9889 21.5046 13.8483 22.6217 14.7793 23.5957C15.7103 24.5697 16.627 25.3359 17.5293 25.8945C18.446 26.4531 19.2695 26.7324 20 26.7324C20.7305 26.7324 21.5469 26.4531 22.4492 25.8945C23.3659 25.3359 24.2897 24.5697 25.2207 23.5957C26.1517 22.6217 27.0039 21.5046 27.7773 20.2441C28.5651 18.9837 29.1953 17.6374 29.668 16.2051C30.1549 14.7728 30.3984 13.319 30.3984 11.8438V4.68945C30.3984 4.23112 30.2552 3.85872 29.9688 3.57227C29.6823 3.28581 29.3099 3.14258 28.8516 3.14258H11.1484C10.6901 3.14258 10.3177 3.28581 10.0312 3.57227C9.74479 3.85872 9.60156 4.23112 9.60156 4.68945V11.8438ZM11.2344 43.834H28.7656V40.9121C28.7656 40.4395 28.6224 40.0671 28.3359 39.7949C28.0638 39.5228 27.6914 39.3867 27.2188 39.3867H12.7812C12.3086 39.3867 11.929 39.5228 11.6426 39.7949C11.3704 40.0671 11.2344 40.4395 11.2344 40.9121V43.834ZM18.4961 36.873H21.5039V28.9668C20.974 29.1243 20.4727 29.2031 20 29.2031C19.5273 29.2031 19.026 29.1243 18.4961 28.9668V36.873ZM30.7852 20.0508C32.9909 18.8477 34.6738 17.2148 35.834 15.1523C36.9941 13.0755 37.5742 10.5046 37.5742 7.43945C37.5742 7.18164 37.4883 6.9668 37.3164 6.79492C37.1445 6.60872 36.9225 6.51562 36.6504 6.51562H32.9121V11.2422C32.9121 12.875 32.7116 14.429 32.3105 15.9043C31.9238 17.3796 31.4154 18.7617 30.7852 20.0508Z" fill="#151515"/>
</svg>
