<svg xmlns="http://www.w3.org/2000/svg" width="54" height="54" viewBox="0 0 54 54" fill="none">
<g clip-path="url(#clip0_1451_1584)">
<path d="M42.5785 26.3237C42.2303 25.718 41.8704 25.0915 41.5486 24.4209C40.9667 23.1748 40.9022 21.7488 41.3692 20.4552C41.4255 20.3099 42.7469 16.8624 42.7469 14.4999C42.7469 11.3428 41.2124 4 27.0002 4C13.9853 4 11.2535 10.1179 11.2535 15.2499C11.363 17.0406 11.8116 18.7942 12.5757 20.4174C12.822 21.0695 12.936 21.7642 12.9107 22.4609C12.8855 23.1576 12.7217 23.8423 12.4288 24.4749C12.1064 25.1527 11.7438 25.7829 11.3934 26.3923C9.76793 28.8713 8.93461 31.7861 9.00401 34.7498C9.04373 38.911 10.6419 42.9061 13.4829 45.9463C14.3887 46.9184 15.4865 47.6918 16.7068 48.2175C17.927 48.7431 19.2431 49.0095 20.5717 48.9997H33.4288C34.7574 49.0095 36.0735 48.7432 37.2937 48.2176C38.514 47.6919 39.6118 46.9185 40.5176 45.9463C43.3586 42.9061 44.9567 38.911 44.9964 34.7498C45.0621 31.761 44.2189 28.8227 42.5785 26.3237ZM39.4107 44.9341C38.6456 45.7527 37.7188 46.4035 36.6891 46.8451C35.6593 47.2867 34.5491 47.5097 33.4288 47.4997H20.5717C19.4513 47.5096 18.341 47.2866 17.3113 46.845C16.2815 46.4033 15.3546 45.7526 14.5894 44.9341C12.0017 42.1701 10.5439 38.5363 10.5037 34.7498C10.437 32.0489 11.2013 29.3926 12.6932 27.1404C13.0579 26.5061 13.4351 25.8504 13.7832 25.1189C14.1648 24.2939 14.3766 23.4005 14.406 22.4919C14.4354 21.5833 14.2818 20.6781 13.9542 19.8301C13.2756 18.3903 12.8684 16.8376 12.7532 15.2499C12.7532 8.78047 17.5467 5.49999 27.0002 5.49999C39.3964 5.49999 41.2472 11.1389 41.2472 14.4999C41.2472 16.5819 39.983 19.8818 39.964 19.9319C39.3572 21.6075 39.4407 23.4554 40.196 25.0694C40.5417 25.7904 40.9163 26.4419 41.278 27.0711C42.7855 29.3434 43.5599 32.0235 43.4968 34.7498C43.4566 38.5363 41.9987 42.1702 39.4107 44.9341ZM27.0002 8.02095C17.6653 8.02095 15.7526 11.0989 15.7526 15.7205C15.7305 16.5026 15.9003 17.2782 16.247 17.9796C16.5938 18.681 17.107 19.2868 17.7418 19.7441C18.2868 20.1316 18.9185 20.3796 19.5815 20.4664C20.2446 20.5532 20.9188 20.4762 21.5452 20.2421C21.7546 20.1641 21.9626 20.0798 22.1764 19.9927C23.6949 19.3279 25.3438 19.0147 27.0002 19.0765C28.6566 19.0147 30.3056 19.3279 31.824 19.9927C32.0379 20.0798 32.2458 20.1641 32.4553 20.2421C33.0815 20.4769 33.7559 20.5544 34.4191 20.4675C35.0823 20.3807 35.714 20.1323 36.2587 19.7441C36.8935 19.2868 37.4067 18.681 37.7534 17.9796C38.1002 17.2782 38.2699 16.5026 38.2479 15.7205C38.2479 11.0989 36.3352 8.02095 27.0002 8.02095ZM35.4023 18.5124C35.0552 18.7603 34.6527 18.9193 34.23 18.9757C33.8073 19.032 33.3772 18.984 32.9774 18.8357C32.7824 18.7633 32.5889 18.6845 32.3897 18.6032C30.6918 17.8646 28.8507 17.5139 27.0002 17.5765C25.1498 17.5139 23.3086 17.8647 21.6107 18.6033C21.4116 18.6846 21.2183 18.7634 21.0231 18.8358C20.6233 18.9843 20.1931 19.0325 19.7704 18.9761C19.3476 18.9197 18.9451 18.7605 18.5982 18.5125C18.1633 18.1921 17.8134 17.7702 17.5788 17.2835C17.3442 16.7969 17.2321 16.2603 17.2523 15.7205C17.2523 13.1043 17.2523 9.52094 27.0002 9.52094C36.7482 9.52094 36.7482 13.1043 36.7482 15.7205C36.7683 16.2603 36.6562 16.7969 36.4216 17.2835C36.187 17.7701 35.8371 18.192 35.4023 18.5124ZM20.0352 37.5228C20.0724 37.6143 20.0912 37.7123 20.0904 37.8111C20.0896 37.9099 20.0694 38.0075 20.0307 38.0985C19.9921 38.1894 19.9359 38.2718 19.8653 38.3409C19.7948 38.4101 19.7113 38.4646 19.6196 38.5014C19.5279 38.5381 19.4298 38.5564 19.3311 38.5551C19.2323 38.5539 19.1348 38.5331 19.044 38.494C18.9533 38.455 18.8712 38.3984 18.8024 38.3274C18.7336 38.2565 18.6795 38.1727 18.6432 38.0809C17.9176 36.2613 17.8056 34.2545 18.3242 32.3654C18.8427 30.4764 19.9636 28.8082 21.5164 27.6144C23.0693 26.4205 24.9693 25.7662 26.9278 25.7509C28.8864 25.7355 30.7964 26.3599 32.3677 27.5293C32.4483 27.5876 32.5164 27.6613 32.5682 27.7462C32.6199 27.8311 32.6543 27.9254 32.6693 28.0237C32.6843 28.1219 32.6796 28.2222 32.6555 28.3187C32.6314 28.4151 32.5884 28.5058 32.5289 28.5855C32.4695 28.6652 32.3948 28.7322 32.3092 28.7827C32.2236 28.8333 32.1288 28.8663 32.0303 28.8798C31.9318 28.8934 31.8316 28.8872 31.7356 28.8617C31.6395 28.8362 31.5495 28.7918 31.4707 28.7312C30.1613 27.7577 28.5701 27.238 26.9386 27.2512C25.3071 27.2643 23.7245 27.8096 22.431 28.8041C21.1374 29.7986 20.2036 31.1881 19.7713 32.7616C19.339 34.3351 19.4314 36.0068 20.0352 37.5228ZM35.3572 31.4188C36.0803 33.2382 36.1906 35.2438 35.6712 37.1314C35.1519 39.0191 34.0312 40.6859 32.4793 41.8791C30.9273 43.0723 29.0287 43.7267 27.0713 43.7432C25.1139 43.7596 23.2045 43.1372 21.6327 41.9703C21.4766 41.8502 21.3741 41.6734 21.3472 41.4783C21.3203 41.2831 21.3713 41.0852 21.4892 40.9273C21.607 40.7694 21.7822 40.6643 21.9769 40.6346C22.1716 40.6048 22.3702 40.6529 22.5297 40.7685C23.8391 41.7422 25.4304 42.2619 27.062 42.2489C28.6936 42.2358 30.2763 41.6906 31.5699 40.696C32.8636 39.7015 33.7974 38.3119 34.2297 36.7383C34.662 35.1647 34.5691 33.4929 33.9652 31.9769C33.928 31.8853 33.9093 31.7874 33.91 31.6886C33.9108 31.5898 33.9311 31.4921 33.9697 31.4012C34.0083 31.3102 34.0646 31.2278 34.1351 31.1587C34.2057 31.0896 34.2892 31.0351 34.3809 30.9983C34.4726 30.9615 34.5706 30.9433 34.6694 30.9445C34.7681 30.9458 34.8657 30.9665 34.9564 31.0056C35.0471 31.0447 35.1293 31.1013 35.198 31.1722C35.2668 31.2431 35.3209 31.3269 35.3572 31.4188Z" fill="#ff8c00" stroke="#ff8c00" stroke-width="0.5"/>
</g>
<defs fill="#000000">
<clipPath id="clip0_1451_1584" fill="#000000">
<rect width="54" height="54" fill="white"/>
</clipPath>
</defs>
</svg>